<svg width="108" height="20" viewBox="0 0 108 20" fill="none" xmlns="http://www.w3.org/2000/svg">
<path d="M16.1523 6.27246H8.16016L7.58594 9.15234H14.5918L13.7275 13.4238H6.73535L5.66406 18.7998H0L3.36035 2H17.0156L16.1523 6.27246ZM20.1494 18.7998H14.4854L17.8457 2H23.5098L20.1494 18.7998ZM38.6201 6.3916H33.7002L31.2275 18.7998H25.5635L28.0361 6.3916H23.1162L24.0039 2H39.5078L38.6201 6.3916ZM48.2773 10.9219L55.3066 2H60.1309L57.2871 16.4229L66.4775 2H72.0459L76.0293 18.7998H70.3896L69.8301 15.8721H63.4287L61.749 18.7998H51.6592L53.1475 11.1328L48.4189 17.2881H45.9229L43.3242 11.251L41.8193 18.7998H36.6592L40.0195 2H44.627L48.2773 10.9219ZM90.834 6.3916H85.9141L83.4414 18.7998H77.7773L80.25 6.3916H75.3301L76.2178 2H91.7217L90.834 6.3916ZM105.024 6.27246H96.9365L96.542 8.24023H103.657L102.841 12.3203H95.7236L95.2812 14.5283H103.705L102.841 18.7998H88.873L92.2324 2H105.889L105.024 6.27246ZM65.7695 11.792H69.0498L68.2295 7.50293L65.7695 11.792Z" fill="#222222"/>
</svg>
