<svg width="24" height="24" viewBox="0 0 24 24" fill="none" xmlns="http://www.w3.org/2000/svg">
<path d="M10.1123 16.2778H5.39353V21M13.8872 8.72222H18.6059V4M5 9.66988C5.52914 8.35923 6.41508 7.22342 7.55711 6.39155C8.69915 5.55967 10.0527 5.06488 11.4616 4.96381C12.8705 4.86275 14.2786 5.15921 15.5275 5.81958C16.7765 6.47994 17.8144 7.47795 18.5249 8.69967M19 15.3306C18.4709 16.6412 17.5849 17.777 16.4429 18.6089C15.3009 19.4408 13.9487 19.9349 12.5398 20.036C11.1309 20.1371 9.7216 19.8406 8.47268 19.1803C7.22376 18.5199 6.18517 17.5221 5.47464 16.3004" stroke="#959595" stroke-width="2" stroke-linecap="round" stroke-linejoin="round"/>
</svg>
