<svg width="375" height="591" viewBox="0 0 375 591" fill="none" xmlns="http://www.w3.org/2000/svg">
<path d="M-40.4916 -131.878C-40.4916 -131.878 -232.483 29.9678 -124.072 181.722C-96.714 220.018 -58.1442 236.681 -17.0497 238.525M-17.0497 238.525C104.7 243.989 248.611 119.38 188.771 41.8956C119.95 -47.2199 -51.092 91.312 -17.0497 238.525ZM-17.0497 238.525C-11.5019 262.517 -0.507379 286.738 17.2639 310.243C64.9383 373.297 130.735 391.273 191.127 384.774M191.127 384.774C291.386 373.985 376.751 295.744 339.587 244.315C286.963 171.494 162.531 281.831 191.127 384.774ZM191.127 384.774C194.892 398.327 201.31 411.752 210.892 424.614C293.263 535.169 439.743 432.481 439.743 432.481" stroke="#222222" stroke-opacity="0.03" stroke-width="46"/>
</svg>
